<?xml version="1.0" encoding="utf-8"?>
<!-- Generator: Adobe Illustrator 22.1.0, SVG Export Plug-In . SVG Version: 6.00 Build 0)  -->
<svg version="1.1" id="Capa_1" xmlns="http://www.w3.org/2000/svg" xmlns:xlink="http://www.w3.org/1999/xlink" x="0px" y="0px"
	 viewBox="0 0 512 608.9" style="enable-background:new 0 0 512 608.9;" xml:space="preserve">
<style type="text/css">
	.st0{fill:#FFFFFF;}
</style>
<path class="st0" d="M469.6,0H42.4C19,0,0,19,0,42.4v380.5c0,23.4,19,42.4,42.4,42.4h427.1c23.4,0,42.4-19,42.4-42.4V42.4
	C512,19,493,0,469.6,0z M166.7,41.6c8,0,14.5,6.5,14.5,14.5s-6.5,14.5-14.5,14.5c-8,0-14.5-6.5-14.5-14.5S158.6,41.6,166.7,41.6z
	 M115.1,41.6c8,0,14.5,6.5,14.5,14.5s-6.5,14.5-14.5,14.5s-14.5-6.5-14.5-14.5S107.1,41.6,115.1,41.6z M63.5,41.6
	c8,0,14.5,6.5,14.5,14.5s-6.5,14.5-14.5,14.5S49,64.1,49,56.1S55.5,41.6,63.5,41.6z M335,422.9H177.9c-3.7-10.1-7.6-23.3-7.6-32.2
	c0-47.5,38.7-86.1,86.2-86.1s86.2,38.6,86.2,86C342.6,399.5,338.6,412.8,335,422.9z M469.6,422.9h-24v-65.3c0-4.4-3-8.4-7.2-9.5
	l-27.9-7.7l-8.5-20.8l14.3-25.1c2.2-3.8,1.5-8.8-1.6-11.9l-47.7-47.8c-1.8-1.8-4.4-2.9-7-2.9c-1.7,0-3.4,0.4-4.8,1.3l-24.4,13.8
	l-23-9.5l-7.8-28.1c-1.2-4.2-5.2-7.2-9.5-7.2h-67.6c-4.4,0-8.4,3-9.5,7.2l-7.8,28.2l-24,10.1l-23.6-13.5c-1.5-0.8-3.1-1.3-4.9-1.3
	c-2.6,0-5.2,1-7,2.9L98,283.6c-3.1,3.1-3.8,8.1-1.6,11.9l14.1,24.8l-8.4,20l-28.4,7.7c-4.2,1.2-7.3,5.2-7.3,9.5v65.3h-24V100.4
	h427.1L469.6,422.9C469.6,422.9,469.6,422.9,469.6,422.9z"/>
<g>
	<path class="st0" d="M208.4,540.5c0,17.1-5.5,31.9-16.4,44.4c-9.7,11.2-23.3,17.1-40.8,17.7c-3.4,0.1-12.6,0.2-27.8,0.2
		c-2.8,0-7.1-0.1-12.8-0.3c-5.7-0.2-10-0.3-12.8-0.3c-1.7,0-2.5-0.7-2.5-2c0-6.4,0.2-16,0.7-28.8c0.5-12.8,0.7-22.4,0.7-28.8
		c0-6.7-0.2-16.7-0.7-30c-0.5-13.3-0.7-23.3-0.7-29.9c0-1.2,0.8-1.9,2.5-2.2c4.1-0.5,10.9-0.7,20.3-0.7c17.9,0,29.4,0.3,34.7,0.8
		c13.8,1.4,24.5,4.9,32.3,10.4c7.3,5.2,13.1,12.5,17.3,21.9C206.4,522,208.4,531.1,208.4,540.5z M175.1,540.5c0-9.8-2.9-17.8-8.8-24
		c-5.9-6.4-13.8-9.7-23.5-9.7c-8.9,0-13.4,1.2-13.4,3.6c0,3.4-0.1,8.6-0.2,15.4c-0.1,6.9-0.2,12-0.2,15.4c0,3.4,0.1,8.4,0.2,15.2
		c0.1,6.8,0.2,11.9,0.2,15.3c0,2.5,4.6,3.7,13.9,3.7c10,0,17.9-3.3,23.7-10C172.4,559.2,175.1,550.8,175.1,540.5z"/>
	<path class="st0" d="M311.8,508.5c0,0.6-0.6,1-1.7,1c-4.4,0-11-0.4-19.8-1.1c-8.8-0.8-15.5-1.1-19.9-1.1c-5.6,0-8.8,0.2-9.7,0.6
		c-2.1,1-3.2,3.8-3.2,8.4c0,5.5,1.4,8.6,4.2,9.4c1.2,0.3,2.9,0.4,5.3,0.4c4,0,10-0.2,18-0.7c8-0.4,14-0.7,18-0.7
		c1.9,0,2.9,5.1,2.9,15.3c0,8.9-0.3,14-1,15.5c-0.4,1-1.2,1.6-2.3,1.6c0.8,0-1.1-0.2-5.5-0.6c-6.2-0.6-15.6-0.9-28.2-0.9
		c-4.1,0-6.4,0-6.9,0.1c-3,0.5-4.4,1.7-4.4,3.7c0,8.2,0.3,17.7,1,28.5c0.6,9.7,0.9,14,0.9,13c0,1.5-1.8,2.4-5.5,2.6
		c1-0.1-1.6-0.1-7.7-0.1c-10.9,0-17.8-0.4-21-1.1c-1.7-0.4-2.5-1.3-2.5-2.7c0-6.4,0.2-16.1,0.7-29c0.4-12.9,0.7-22.6,0.7-29
		c0-7.7-0.3-17.3-1-28.9c-1-17.9-1.6-27.6-1.7-28.9l-0.1-1c-0.1-1.5,0.8-2.2,2.6-2.2c4.3,0,10.8,0.1,19.5,0.3
		c8.7,0.2,15.2,0.3,19.5,0.3c4.6,0,11.6-0.3,20.9-1s16.3-1,20.9-1c2.9,0,4.5,1.2,4.9,3.6c0,2.5,0.1,6.2,0.3,11.2
		c0.1,1.3,0.5,3.7,1.1,7.4C311.5,504.3,311.8,506.7,311.8,508.5z"/>
	<path class="st0" d="M423.8,582.5c0,0.9-0.6,2.1-1.8,3.7c-10.7,12.7-24.9,19.1-42.6,19.1c-18.1,0-32.8-6.2-44-18.5
		c-11-12-16.4-27-16.4-45.3c0-17.6,5.4-32.6,16.1-44.9c11.2-12.9,25.4-19.3,42.7-19.3c18.8,0,33.5,5.8,44.2,17.3
		c1.2,1.3,1.7,2.4,1.7,3.4c0,1.1-2,5.2-6,12.3c-4,7.1-6.6,11.1-7.6,11.9c-0.5,0.5-1,0.7-1.7,0.7c-0.3,0-1.7-1.2-4.4-3.5
		c-3.1-2.8-6.2-5-9.2-6.5c-4.6-2.3-9.3-3.5-14.3-3.5c-8.5,0-15.3,3.2-20.5,9.6c-4.7,5.9-7,13.2-7,21.9c0,8.8,2.3,16.2,7,22.2
		c5.1,6.5,11.9,9.7,20.5,9.7c5,0,9.8-1.1,14.4-3.3c3-1.4,6-3.5,9.1-6.1c2.6-2.2,4-3.3,4.3-3.3c0.6,0,1.2,0.3,1.7,1
		c0.9,1,3.5,4.7,7.6,10.9C421.6,578.4,423.8,581.9,423.8,582.5z"/>
</g>
</svg>
