<?xml version="1.0" encoding="utf-8"?>
<!-- Generator: Adobe Illustrator 22.1.0, SVG Export Plug-In . SVG Version: 6.00 Build 0)  -->
<svg version="1.1" id="Capa_1" xmlns="http://www.w3.org/2000/svg" xmlns:xlink="http://www.w3.org/1999/xlink" x="0px" y="0px"
	 viewBox="0 0 268.7 268.7" style="enable-background:new 0 0 268.7 268.7;" xml:space="preserve">
<style type="text/css">
	.st0{fill:url(#SVGID_1_);}
	.st1{fill:url(#SVGID_2_);}
	.st2{fill:none;}
	.st3{fill:url(#SVGID_3_);}
	.st4{fill:url(#SVGID_4_);}
	.st5{fill:url(#SVGID_5_);}
	.st6{fill:url(#SVGID_6_);}
	.st7{fill:url(#SVGID_7_);}
	.st8{fill:url(#SVGID_8_);}
	.st9{fill:url(#SVGID_9_);}
	.st10{fill:url(#SVGID_10_);}
	.st11{fill:url(#SVGID_11_);}
	.st12{fill:url(#SVGID_12_);}
</style>
<g>
	
		<linearGradient id="SVGID_1_" gradientUnits="userSpaceOnUse" x1="-158.2736" y1="-176.8071" x2="-158.2736" y2="-249.4175" gradientTransform="matrix(1 0 -0.1048 1 384.3806 356.7445)">
		<stop  offset="0" style="stop-color:#FFFFFF;stop-opacity:0"/>
		<stop  offset="1" style="stop-color:#FFFFFF"/>
	</linearGradient>
	<path class="st0" d="M244.4,179.9c-6.1,0-10.6-4.3-10.1-9.6l6.1-53.5c0.5-4.4,4.3-8.1,9.1-9.2c3.3-0.8,7.1,0,9.7,2.2
		c2.6,2.3,3.6,5.1,3.2,8.4c-0.3,2.3-0.5,4.6-0.8,6.9c-1,8.3-0.1,0.7-1,9c-1.1,9.3-1,10.1-2.1,19.4c-0.6,5.4-1.3,10.9-1.9,16.3
		c0,0.2,0,0.4-0.1,0.6C255.9,175.7,250.5,179.9,244.4,179.9z"/>
	<linearGradient id="SVGID_2_" gradientUnits="userSpaceOnUse" x1="234.2639" y1="161.0932" x2="256.5457" y2="161.0932">
		<stop  offset="0" style="stop-color:#FFFFFF;stop-opacity:0"/>
		<stop  offset="1" style="stop-color:#FFFFFF"/>
	</linearGradient>
	<path class="st1" d="M241.5,180.4c3.7,0.8,7.6,0.2,10.6-2.2c5.5-4.3,5.9-12.5,1-18.2l-15.8-18.6l-3,28.5
		C233.8,174.9,236.9,179.1,241.5,180.4z"/>
</g>
<polygon class="st2" points="152.2,113.3 152.2,113.3 155.1,85.8 155,85.8 "/>
<polygon class="st2" points="150.1,132.9 150.4,129.7 150.4,129.7 "/>
<linearGradient id="SVGID_3_" gradientUnits="userSpaceOnUse" x1="114.2758" y1="168.4694" x2="186.9433" y2="42.6056">
	<stop  offset="0" style="stop-color:#999999;stop-opacity:0.3"/>
	<stop  offset="2.328753e-02" style="stop-color:#A2A2A2;stop-opacity:0.3163"/>
	<stop  offset="0.1105" style="stop-color:#BFBFBF;stop-opacity:0.3774"/>
	<stop  offset="0.2083" style="stop-color:#D6D6D6;stop-opacity:0.4458"/>
	<stop  offset="0.3194" style="stop-color:#E9E9E9;stop-opacity:0.5236"/>
	<stop  offset="0.4515" style="stop-color:#F5F5F5;stop-opacity:0.616"/>
	<stop  offset="0.625" style="stop-color:#FDFDFD;stop-opacity:0.7375"/>
	<stop  offset="1" style="stop-color:#FFFFFF"/>
</linearGradient>
<path class="st3" d="M150.1,132.9l0.3-3.2h0l1.7-16.4h0l2.9-27.5h0l1.8-16.8h-8.5c-3.1,0-5.7,0.5-7.7,1.4c-2.1,0.9-3.7,2.3-4.8,4.3
	c-1.1,2-1.9,4.5-2.2,7.7l-8.7,82.7c-0.5,4.4,0.2,7.8,2,10c1.8,2.2,4.3,3.3,7.5,3.3c3.2,0,5.9-1.1,8.2-3.3c2.3-2.2,3.6-5.5,4.1-10
	l1.2-11.1h0L150.1,132.9z"/>
<linearGradient id="SVGID_4_" gradientUnits="userSpaceOnUse" x1="127.0933" y1="170.8688" x2="219.1694" y2="78.7927">
	<stop  offset="0" style="stop-color:#FFFFFF;stop-opacity:0"/>
	<stop  offset="1" style="stop-color:#FFFFFF"/>
</linearGradient>
<path class="st4" d="M190.8,129.7c3.3,0,5.8-0.7,7.6-2.2c1.8-1.5,2.9-3.5,3.1-5.9c0.3-2.5-0.3-4.5-1.8-6c-1.5-1.5-3.9-2.2-7.2-2.2
	h-35.9l-1.7,16.4H190.8z"/>
<linearGradient id="SVGID_5_" gradientUnits="userSpaceOnUse" x1="222.8964" y1="121.5026" x2="304.7403" y2="121.5026" gradientTransform="matrix(1 0 -0.1051 1 -51.0347 0)">
	<stop  offset="0.2565" style="stop-color:#808080;stop-opacity:0"/>
	<stop  offset="0.3309" style="stop-color:#989898;stop-opacity:0.1001"/>
	<stop  offset="0.4674" style="stop-color:#BDBDBD;stop-opacity:0.2836"/>
	<stop  offset="0.6039" style="stop-color:#DADADA;stop-opacity:0.4673"/>
	<stop  offset="0.739" style="stop-color:#EEEEEE;stop-opacity:0.649"/>
	<stop  offset="0.8719" style="stop-color:#FBFBFB;stop-opacity:0.8277"/>
	<stop  offset="1" style="stop-color:#FFFFFF"/>
</linearGradient>
<path class="st5" d="M190.7,129.7c3.3,0,5.8-0.7,7.6-2.2c1.8-1.5,2.9-3.4,3.1-5.9c0.3-2.5-0.3-4.5-1.8-6c-1.5-1.5-3.9-2.2-7.2-2.2
	h-35.9l-1.7,16.4H190.7z"/>
<linearGradient id="SVGID_6_" gradientUnits="userSpaceOnUse" x1="109.5187" y1="152.9484" x2="201.5948" y2="60.8723">
	<stop  offset="0" style="stop-color:#FFFFFF;stop-opacity:0"/>
	<stop  offset="1" style="stop-color:#FFFFFF"/>
</linearGradient>
<path class="st6" d="M202.8,85.8c3.5,0,6.1-0.8,8-2.3c1.8-1.5,2.9-3.6,3.2-6.1c0.3-2.5-0.4-4.5-1.9-6.1c-1.5-1.5-4-2.3-7.5-2.3
	h-42.9l-1.8,16.8H202.8z"/>
<linearGradient id="SVGID_7_" gradientUnits="userSpaceOnUse" x1="228.174" y1="77.4169" x2="296.0826" y2="77.4169" gradientTransform="matrix(1 0 -0.1051 1 -51.0347 0)">
	<stop  offset="0.3701" style="stop-color:#808080;stop-opacity:0"/>
	<stop  offset="0.4586" style="stop-color:#878787;stop-opacity:0.1406"/>
	<stop  offset="0.5896" style="stop-color:#9B9B9B;stop-opacity:0.3486"/>
	<stop  offset="0.747" style="stop-color:#BCBCBC;stop-opacity:0.5983"/>
	<stop  offset="0.9232" style="stop-color:#E9E9E9;stop-opacity:0.8781"/>
	<stop  offset="1" style="stop-color:#FFFFFF"/>
</linearGradient>
<path class="st7" d="M202.7,85.8c3.5,0,6.1-0.8,8-2.3c1.8-1.5,2.9-3.6,3.2-6.1c0.3-2.5-0.4-4.5-1.9-6.1c-1.5-1.5-4-2.3-7.5-2.3
	h-42.9l-1.8,16.8H202.7z"/>
<linearGradient id="SVGID_8_" gradientUnits="userSpaceOnUse" x1="122.113" y1="170.3452" x2="214.1891" y2="78.2691">
	<stop  offset="0" style="stop-color:#FFFFFF;stop-opacity:0"/>
	<stop  offset="1" style="stop-color:#FFFFFF"/>
</linearGradient>
<polygon class="st8" points="147.9,154 147.9,154 150.1,132.9 "/>
<linearGradient id="SVGID_9_" gradientUnits="userSpaceOnUse" x1="209.8188" y1="148.7518" x2="294.1554" y2="64.4152" gradientTransform="matrix(1 0 -0.1051 1 -51.0347 0)">
	<stop  offset="0" style="stop-color:#FFFFFF;stop-opacity:0"/>
	<stop  offset="1" style="stop-color:#FFFFFF"/>
</linearGradient>
<polygon class="st9" points="147.9,154 147.9,154 150.1,132.9 "/>
<g>
	<polygon class="st2" points="26.5,161.3 26.6,161.3 34.4,87.4 34.2,87.4 	"/>
	<linearGradient id="SVGID_10_" gradientUnits="userSpaceOnUse" x1="-4.7766" y1="169.8151" x2="58.14" y2="60.8404">
		<stop  offset="0" style="stop-color:#FFFFFF;stop-opacity:0"/>
		<stop  offset="1" style="stop-color:#FFFFFF"/>
	</linearGradient>
	<path class="st10" d="M26.5,161.3l7.7-73.9h0.1l1.8-17.5h-8.7c-4.8,0-8.3,1.1-10.7,3.2c-2.4,2.1-3.8,5.6-4.3,10.3l-8.4,79.9
		c-0.4,3.5-0.4,6.4,0,8.6c0.4,2.2,1.5,3.9,3.4,5.1c1.9,1.2,4.9,1.8,8.9,1.8h8.2l1.8-17.5H26.5z"/>
</g>
<g>
	<path class="st2" d="M48.3,161.1c3.7,0,6.5-0.1,8.6-0.3c2.1-0.2,4.3-0.7,6.6-1.5c2.3-0.8,4.4-1.9,6.1-3.3c8-6.2,12.8-17,14.4-32.2
		c1.1-10.7,0.3-18.8-2.3-24.1c-2.7-5.3-6.3-8.8-10.9-10.2c-4.6-1.5-10.3-2.2-17-2.2H39.6l-7.8,73.9H48.3z"/>
	<linearGradient id="SVGID_11_" gradientUnits="userSpaceOnUse" x1="17.8382" y1="84.8255" x2="93.5364" y2="160.5237">
		<stop  offset="0" style="stop-color:#FFFFFF;stop-opacity:0"/>
		<stop  offset="1" style="stop-color:#FFFFFF"/>
	</linearGradient>
	<path class="st11" d="M94.2,79.6c-4-3.8-8.5-6.4-13.7-7.8c-5.2-1.4-11.5-2.1-19-2.1h-20l-1.8,17.5h14.3c6.7,0,12.4,0.7,17,2.2
		c4.6,1.5,8.2,4.9,10.9,10.2c2.7,5.3,3.5,13.4,2.3,24.1c-1.6,15.3-6.4,26-14.4,32.2c-1.8,1.4-3.8,2.6-6.1,3.3
		c-2.3,0.8-4.5,1.3-6.6,1.5c-2.1,0.2-5,0.3-8.6,0.3H31.8L30,178.6h20.5c5,0,9.5-0.3,13.6-1c4.1-0.6,7.9-1.8,11.5-3.3
		c3.6-1.6,7-3.7,10.2-6.3c4.1-3.4,7.5-7.3,10.4-11.6c2.8-4.3,5.1-9.2,6.8-14.6c1.7-5.4,2.9-11.4,3.6-17.9
		C108.6,104,104.5,89.3,94.2,79.6z"/>
</g>
<linearGradient id="SVGID_12_" gradientUnits="userSpaceOnUse" x1="-397.1977" y1="600.2565" x2="-397.1977" y2="574.5069" gradientTransform="matrix(0.7071 -0.7071 0.7071 0.7071 121.3698 -613.5846)">
	<stop  offset="0" style="stop-color:#FFFFFF;stop-opacity:0"/>
	<stop  offset="1" style="stop-color:#FFFFFF"/>
</linearGradient>
<circle class="st12" cx="255.9" cy="82.6" r="12.9"/>
</svg>
