<?xml version="1.0" encoding="utf-8"?>
<!-- Generator: Adobe Illustrator 22.1.0, SVG Export Plug-In . SVG Version: 6.00 Build 0)  -->
<svg version="1.1" id="Capa_1" xmlns="http://www.w3.org/2000/svg" xmlns:xlink="http://www.w3.org/1999/xlink" x="0px" y="0px"
	 viewBox="0 0 512 608.9" style="enable-background:new 0 0 512 608.9;" xml:space="preserve">
<style type="text/css">
	.st0{fill:#FFFFFF;}
</style>
<path class="st0" d="M469.6,0H42.4C19,0,0,19,0,42.4v380.5c0,23.4,19,42.4,42.4,42.4h427.1c23.4,0,42.4-19,42.4-42.4V42.4
	C512,19,493,0,469.6,0z M166.7,41.6c8,0,14.5,6.5,14.5,14.5s-6.5,14.5-14.5,14.5c-8,0-14.5-6.5-14.5-14.5S158.6,41.6,166.7,41.6z
	 M115.1,41.6c8,0,14.5,6.5,14.5,14.5s-6.5,14.5-14.5,14.5s-14.5-6.5-14.5-14.5S107.1,41.6,115.1,41.6z M63.5,41.6
	c8,0,14.5,6.5,14.5,14.5s-6.5,14.5-14.5,14.5S49,64.1,49,56.1S55.5,41.6,63.5,41.6z M335,422.9H177.9c-3.7-10.1-7.6-23.3-7.6-32.2
	c0-47.5,38.7-86.1,86.2-86.1s86.2,38.6,86.2,86C342.6,399.5,338.6,412.8,335,422.9z M469.6,422.9h-24v-65.3c0-4.4-3-8.4-7.2-9.5
	l-27.9-7.7l-8.5-20.8l14.3-25.1c2.2-3.8,1.5-8.8-1.6-11.9l-47.7-47.8c-1.8-1.8-4.4-2.9-7-2.9c-1.7,0-3.4,0.4-4.8,1.3l-24.4,13.8
	l-23-9.5l-7.8-28.1c-1.2-4.2-5.2-7.2-9.5-7.2h-67.6c-4.4,0-8.4,3-9.5,7.2l-7.8,28.2l-24,10.1l-23.6-13.5c-1.5-0.8-3.1-1.3-4.9-1.3
	c-2.6,0-5.2,1-7,2.9L98,283.6c-3.1,3.1-3.8,8.1-1.6,11.9l14.1,24.8l-8.4,20l-28.4,7.7c-4.2,1.2-7.3,5.2-7.3,9.5v65.3h-24V100.4
	h427.1L469.6,422.9C469.6,422.9,469.6,422.9,469.6,422.9z"/>
<g>
	<path class="st0" d="M204.9,599c0,1.8-0.8,2.7-2.5,2.7h-30.3c-1.7,0-2.5-1-2.5-3c0-5.8,0.2-14.4,0.6-26c0.4-11.5,0.6-20.2,0.6-26
		c0-1.7-0.3-2.5-0.8-2.7c-0.6,0.3-4.5,9.2-11.5,26.5c-4.1,10.2-8.2,20.3-12.3,30.4c-0.6,1.3-1.3,2.1-2.1,2.3
		c-0.3,0.1-1.4,0.1-3.4,0.1c-3,0-4.7-0.6-5.3-1.7c-3.1-6.3-7.1-15.4-12.2-27.4c-5.4-12.7-9.4-21.8-12.1-27.5
		c-0.1-0.3-0.4-0.6-0.8-0.9c-0.4,0.5-0.6,1.3-0.6,2.5c0,5.6,0.1,14,0.4,25.2c0.3,11.2,0.4,19.6,0.4,25.2c0,2-0.8,3-2.4,3H79.7
		c-1.1,0-1.8-0.2-2.1-0.6c-0.3-0.4-0.4-1-0.4-1.9c0-6.2,0.3-15.6,0.9-28.1c0.6-12.5,0.9-21.8,0.9-28.1c0-6.6-0.3-19-0.9-37.3
		c-0.1-4.7-0.3-11.8-0.8-21.2l-0.1-1.5c-0.1-1.1,1.1-1.7,3.6-1.7c3.1,0,7.9-0.1,14.1-0.3c6.3-0.2,11-0.3,14.1-0.3
		c0.6,0,1.5,1.2,2.7,3.6l25,54.9c1.8,3.7,3.3,5.6,4.5,5.6c0.6,0,2-2.1,4-6.4c5.8-12,14.3-30.1,25.6-54.2c1-2.2,2-3.3,3.2-3.3
		c1.7,0,4.2,0.1,7.5,0.3c3.3,0.2,5.9,0.3,7.6,0.3c1.4,0,3.6-0.1,6.6-0.4c2.9-0.3,5.1-0.4,6.6-0.4c1.7,0,2.6,0.7,2.6,2.1
		c0,6.7-0.2,16.8-0.7,30.2c-0.5,13.4-0.7,23.5-0.7,30.2c0,6.2,0.3,15.6,0.8,28C204.7,583.6,204.9,592.9,204.9,599z"/>
	<path class="st0" d="M323,600.8c0,0.4-0.6,0.7-1.7,0.9c-2.2,0.3-7.6,0.5-16.4,0.5c-7.5,0-12.6-0.2-15.2-0.5c-1.3-0.2-2-0.3-2.1-0.4
		c-0.3-0.2-0.7-0.7-1.2-1.7c-0.9-2.2-2.1-5.5-3.8-9.9c-2.2-5.7-5.7-14.1-10.4-25.3c-1-2.2-3.4-3.5-7.1-3.7c1.7,0.1-1.2,0.2-8.8,0.2
		c-0.9,0-1.3,1.5-1.3,4.4c0,3.9,0.4,9.7,1.1,17.4c0.7,7.7,1.1,13.5,1.1,17.4c0,1-0.3,1.5-0.8,1.7c-0.8,0.1-1.6,0.1-2.4,0.2
		c-3.4,0.2-8.6,0.3-15.8,0.3c-8.2,0-13.1-0.2-14.7-0.5c-1.7-0.3-2.5-1.2-2.5-2.7c0-6.3,0.3-15.8,0.9-28.4
		c0.6-12.7,0.9-22.2,0.9-28.5c0-24.2-0.5-43-1.6-56.5l-0.1-1.2c-0.1-1,0.8-1.6,2.7-2c1.9-0.3,10.6-0.7,26.2-1
		c10.6-0.2,19-0.3,25.3-0.3c13,0,23.6,2.9,31.9,8.8c9.3,6.6,14,16.2,14,28.7c0,8.3-1.2,15-3.6,20c-2.4,5-6.8,9.8-13.3,14.5
		c-1.3,0.9-2,1.8-2,2.6c0-0.1,3.5,7.1,10.5,21.5C319.5,591.4,323,599.4,323,600.8z M287,524c0-7-2.3-11.8-6.9-14.5
		c-3.5-2.1-9.1-3.1-16.6-3.1c-5.4,0-8.3,0.8-8.7,2.5c-0.3,1.9-0.5,7.5-0.5,16.8c0,1.3,0,3.3,0.1,5.8s0.1,4.5,0.1,5.7
		c0,0.3,0.9,0.6,2.7,0.9c3.5,0.5,7.1,0.8,11,0.8C280.8,538.9,287,533.9,287,524z"/>
	<path class="st0" d="M434.8,600.8c0,0.4-0.6,0.7-1.7,0.9c-2.2,0.3-7.6,0.5-16.4,0.5c-7.5,0-12.6-0.2-15.2-0.5
		c-1.3-0.2-2-0.3-2.1-0.4c-0.3-0.2-0.7-0.7-1.2-1.7c-0.9-2.2-2.1-5.5-3.8-9.9c-2.2-5.7-5.7-14.1-10.4-25.3c-1-2.2-3.4-3.5-7.1-3.7
		c1.7,0.1-1.2,0.2-8.8,0.2c-0.9,0-1.3,1.5-1.3,4.4c0,3.9,0.4,9.7,1.1,17.4c0.7,7.7,1.1,13.5,1.1,17.4c0,1-0.3,1.5-0.8,1.7
		c-0.8,0.1-1.6,0.1-2.4,0.2c-3.4,0.2-8.6,0.3-15.8,0.3c-8.2,0-13.1-0.2-14.7-0.5c-1.7-0.3-2.5-1.2-2.5-2.7c0-6.3,0.3-15.8,0.9-28.4
		c0.6-12.7,0.9-22.2,0.9-28.5c0-24.2-0.5-43-1.6-56.5l-0.1-1.2c-0.1-1,0.8-1.6,2.7-2c1.9-0.3,10.6-0.7,26.2-1
		c10.6-0.2,19-0.3,25.3-0.3c13,0,23.6,2.9,31.9,8.8c9.3,6.6,14,16.2,14,28.7c0,8.3-1.2,15-3.6,20c-2.4,5-6.8,9.8-13.3,14.5
		c-1.3,0.9-2,1.8-2,2.6c0-0.1,3.5,7.1,10.5,21.5C431.3,591.4,434.8,599.4,434.8,600.8z M398.8,524c0-7-2.3-11.8-6.9-14.5
		c-3.5-2.1-9.1-3.1-16.6-3.1c-5.4,0-8.3,0.8-8.7,2.5c-0.3,1.9-0.5,7.5-0.5,16.8c0,1.3,0,3.3,0.1,5.8c0.1,2.6,0.1,4.5,0.1,5.7
		c0,0.3,0.9,0.6,2.7,0.9c3.5,0.5,7.1,0.8,11,0.8C392.5,538.9,398.8,533.9,398.8,524z"/>
</g>
</svg>
