<?xml version="1.0" encoding="utf-8"?>
<!-- Generator: Adobe Illustrator 22.1.0, SVG Export Plug-In . SVG Version: 6.00 Build 0)  -->
<svg version="1.1" id="圖層_1" xmlns="http://www.w3.org/2000/svg" xmlns:xlink="http://www.w3.org/1999/xlink" x="0px" y="0px"
	 viewBox="0 0 511 511" style="enable-background:new 0 0 511 511;" xml:space="preserve">
<style type="text/css">
	.st0{fill:#333333;stroke:#333333;stroke-width:12;stroke-miterlimit:10;}
	.st1{fill:#333333;stroke:#333333;stroke-width:9.687;stroke-miterlimit:10;}
</style>
<g id="surface1">
	<path class="st0" d="M456.8,55.2C426.4,24.8,385.9,8,342.8,8c-43.1,0-83.6,16.8-114,47.2c-30.4,30.4-47.2,70.9-47.2,114
		c0,14.6,2.2,30.2,6.9,47.5L14.1,391c-3.3,3.3-5.2,7.7-5.2,12.4v82c0,9.7,7.9,17.6,17.6,17.6h80.2c9.7,0,17.6-7.9,17.6-17.6v-34.2
		h34.2c9.7,0,17.6-7.9,17.6-17.6v-34.2h36c4.7,0,9.1-1.8,12.4-5.1l70.6-70.6c15.8,4.4,31.8,6.7,47.7,6.7c43.1,0,83.6-16.8,114-47.2
		c30.4-30.4,47.2-70.9,47.2-114C504,126.1,487.3,85.6,456.8,55.2z M436.3,262.7c-24.9,24.9-58.1,38.7-93.5,38.7
		c-15.3,0-30.2-2.4-45.5-7.3c-6.3-2-13.1-0.4-17.8,4.3l-72.1,72.1h-42.7c-9.7,0-17.6,7.9-17.6,17.6v34.2h-34.2
		c-9.7,0-17.6,7.9-17.6,17.6v34.2H38.1v-65.7l175.7-175.7c4.5-4.5,6.2-11.2,4.4-17.4c-5.1-17.3-7.5-32.3-7.5-45.9
		c0-35.3,13.7-68.5,38.7-93.5c24.9-24.9,58.1-38.7,93.5-38.7c35.4,0,68.6,13.7,93.5,38.7s38.7,58.1,38.7,93.5
		C475,204.6,461.2,237.8,436.3,262.7z"/>
	<path class="st1" d="M342.9,79.9c-48.3,0-87.6,39.3-87.6,87.6s39.3,87.6,87.6,87.6c48.3,0,87.6-39.3,87.6-87.6
		S391.2,79.9,342.9,79.9z M342.9,226c-32.3,0-58.5-26.3-58.5-58.5s26.3-58.5,58.5-58.5c32.3,0,58.5,26.3,58.5,58.5
		S375.2,226,342.9,226z"/>
</g>
</svg>
