<svg xmlns="http://www.w3.org/2000/svg" viewBox="0 0 160.58 141.85"><defs><style>.cls-1{fill:#fff;}</style></defs><title>資產 33</title><g id="圖層_2" data-name="圖層 2"><g id="圖層_1-2" data-name="圖層 1"><path class="cls-1" d="M80.18.09c24.8,0,49.6.1,74.39-.09,4.43,0,6.2.9,6,5.73-.5,10.45,1.3,9-9,9q-72.39.08-144.79,0C.1,14.77.06,14.77.11,8.4.17-1-1,.12,8.28.11Q44.24.05,80.18.09Z"/><path class="cls-1" d="M80.05,141.77c-25,0-49.93-.08-74.9.08-3.89,0-5.22-1-5.15-5,.17-9.72,0-9.73,9.85-9.73,48.1,0,96.2.08,144.29-.11,5,0,6.7,1.1,6.41,6.31-.54,9.7,1.07,8.44-8.6,8.46Q116,141.83,80.05,141.77Z"/><path class="cls-1" d="M107.79,56.93c-15.15,0-30.31-.09-45.46.07-3.48,0-4.72-1.08-4.67-4.53.18-11.83-1-10,9.61-10.08,28.14-.07,56.28.08,84.42-.12,4.63,0,6,1.26,5.84,5.88-.44,10.29,1.07,8.7-8.78,8.76C135.1,57,121.44,56.93,107.79,56.93Z"/><path class="cls-1" d="M107.25,99.49c-14.82,0-29.64-.1-44.45.08-3.92,0-5.25-1.21-5.17-5.16.22-11.8-.37-9.41,9.18-9.44,28.47-.11,56.94,0,85.42-.13,4.23,0,5.43,1.27,5.27,5.37-.4,10.63,1.49,9.2-9.28,9.26C134.56,99.54,120.91,99.49,107.25,99.49Z"/><path class="cls-1" d="M34.82,71.44c0,7.31,0,14.62,0,21.93,0,1.27.38,2.87-1.09,3.56s-2.48-.6-3.49-1.38C20.9,88.33,11.63,81,2.28,73.85c-2.71-2.08-2.7-3.77,0-5.84,9.48-7.28,18.9-14.66,28.33-22,2.76-2.15,4.19-1.59,4.19,2Q34.81,59.73,34.82,71.44Z"/></g></g></svg>