<?xml version="1.0" encoding="utf-8"?>
<!-- Generator: Adobe Illustrator 22.1.0, SVG Export Plug-In . SVG Version: 6.00 Build 0)  -->
<svg version="1.1" id="Capa_1" xmlns="http://www.w3.org/2000/svg" xmlns:xlink="http://www.w3.org/1999/xlink" x="0px" y="0px"
	 viewBox="0 0 92 92" style="enable-background:new 0 0 92 92;" xml:space="preserve">
<style type="text/css">
	.st0{fill:#333333;}
</style>
<path class="st0" d="M89.3,89c-1.5-16.2-9.4-28.2-23.9-35.7c-1.8-1-2.5-1.4-0.5-3.1c7.7-6.9,10.7-15.6,9.3-25.8
	c-2-14.9-16.9-26.2-31.6-24C26.4,2.7,15.3,17.3,17.8,32.8c1.3,7.7,4.8,14,11.4,19c-0.8,0.5-1.2,0.7-1.7,0.9
	C14.1,59.4,6.2,70.2,3.3,84.9C2,91.7,2.3,92,8.9,92c2.3,0,2.7-1,2.7-2.9c0.4-8.5,4-15.8,10-21.7c9.8-9.5,21.7-12.5,34.7-8.5
	c13.6,4.2,21.6,13.9,24,28c0.8,5,0.8,4.9,6,5C88.6,92,89.5,91.5,89.3,89z M46.1,48.5c-11,0-19.8-8.9-19.7-20
	c0.1-10.8,9-19.8,19.8-19.7C57,8.9,66,18,65.8,28.9C65.7,39.9,56.9,48.5,46.1,48.5z"/>
</svg>
